<?xml version="1.0" encoding="UTF-8"?>
<svg viewBox="0 0 512 466" version="1.1" xmlns="http://www.w3.org/2000/svg" xmlns:xlink="http://www.w3.org/1999/xlink">
    <g id="Page-1" stroke="none" stroke-width="1" fill="none" fill-rule="evenodd">
        <g id="line-chart" fill="currentColor" fill-rule="nonzero">
            <path d="M506.35,57.426 C498.78,49.837 486.516,49.817 478.92,57.374 L331.662,204.037 L289.105,161.48 C281.528,153.91 269.259,153.903 261.682,161.48 L89.076,334.087 C81.499,341.657 81.499,353.94 89.076,361.51 C92.858,365.298 97.823,367.192 102.788,367.192 C107.746,367.192 112.718,365.298 116.499,361.51 L275.394,202.622 L317.925,245.146 C325.495,252.716 337.733,252.723 345.322,245.178 L506.292,84.855 C513.881,77.298 513.907,65.015 506.35,57.426 Z" id="Path"></path>
            <path d="M491.96,426.667 L38.788,426.667 L38.788,19.394 C38.788,8.682 30.106,-2.84217094e-14 19.394,-2.84217094e-14 C8.682,-2.84217094e-14 0,8.682 0,19.394 L0,446.061 C0,456.773 8.682,465.455 19.394,465.455 L491.96,465.455 C502.672,465.455 511.354,456.773 511.354,446.061 C511.354,435.349 502.672,426.667 491.96,426.667 Z" id="Path"></path>
            <path d="M492.606,51.071 L347.152,51.071 C336.44,51.071 327.758,59.753 327.758,70.465 C327.758,81.177 336.44,89.859 347.152,89.859 L473.213,89.859 L473.213,215.926 C473.213,226.631 481.895,235.32 492.607,235.32 C503.319,235.32 512,226.631 512,215.919 L512,70.465 C512,59.753 503.318,51.071 492.606,51.071 Z" id="Path"></path>
        </g>
    </g>
</svg>