<?xml version="1.0" encoding="UTF-8"?>
<svg viewBox="0 0 427 427" version="1.1" xmlns="http://www.w3.org/2000/svg" xmlns:xlink="http://www.w3.org/1999/xlink">
    <g id="Page-1" stroke="none" stroke-width="1" fill="none" fill-rule="evenodd">
        <g id="chart" fill="currentColor" fill-rule="nonzero">
            <path d="M234.666667,128 C234.666667,116.218027 225.115733,106.666667 213.333333,106.666667 C201.550933,106.666667 192,116.218027 192,128 L192,298.666667 C192,310.449067 201.550933,320 213.333333,320 C225.115733,320 234.666667,310.449067 234.666667,298.666667 L234.666667,128 Z" id="Path"></path>
            <path d="M298.666667,234.666667 C310.449067,234.666667 320,244.2176 320,256 L320,298.666667 C320,310.449067 310.449067,320 298.666667,320 C286.884267,320 277.333333,310.449067 277.333333,298.666667 L277.333333,256 C277.333333,244.2176 286.884267,234.666667 298.666667,234.666667 Z" id="Path"></path>
            <path d="M149.333333,192 C149.333333,180.2176 139.781973,170.666667 128,170.666667 C116.218027,170.666667 106.666667,180.2176 106.666667,192 L106.666667,298.666667 C106.666667,310.449067 116.218027,320 128,320 C139.781973,320 149.333333,310.449067 149.333333,298.666667 L149.333333,192 Z" id="Path"></path>
            <path d="M106.666667,0 C47.7563733,0 0,47.7563733 0,106.666667 L0,320 C0,378.909867 47.7563733,426.666667 106.666667,426.666667 L320,426.666667 C378.909867,426.666667 426.666667,378.909867 426.666667,320 L426.666667,106.666667 C426.666667,47.7563733 378.909867,0 320,0 L106.666667,0 Z M42.6666667,106.666667 C42.6666667,71.3205333 71.3205333,42.6666667 106.666667,42.6666667 L320,42.6666667 C355.3472,42.6666667 384,71.3205333 384,106.666667 L384,320 C384,355.3472 355.3472,384 320,384 L106.666667,384 C71.3205333,384 42.6666667,355.3472 42.6666667,320 L42.6666667,106.666667 Z" id="Shape"></path>
        </g>
    </g>
</svg>