<?xml version="1.0" encoding="UTF-8"?>
<svg viewBox="0 0 478 376" version="1.1" xmlns="http://www.w3.org/2000/svg" xmlns:xlink="http://www.w3.org/1999/xlink">
    <g id="Page-1" stroke="none" stroke-width="1" fill="none" fill-rule="evenodd">
        <g id="transfer" fill="currentColor" fill-rule="nonzero">
            <path d="M472.86325,124.46375 L353.39625,4.99675025 C346.73025,-1.66724975 335.92425,-1.66524975 329.26025,5.00075025 C326.06125,8.20075025 324.26425,12.5387503 324.26325,17.0637503 L324.26325,68.2637503 L204.79625,68.2637503 C195.37025,68.2637503 187.72925,75.9047503 187.72925,85.3307503 C187.72925,94.7567503 195.37025,102.39775 204.79625,102.39775 L341.33025,102.39775 C350.75625,102.39775 358.39725,94.7567503 358.39725,85.3307503 L358.39725,58.2617503 L436.66525,136.52975 L358.39725,214.79775 L358.39725,187.72975 C358.39725,178.30375 350.75625,170.66275 341.33025,170.66275 L153.59625,170.66275 L153.59625,119.46275 C153.59425,110.03675 145.95125,102.39775 136.52625,102.39975 C132.00225,102.40075 127.66325,104.19775 124.46325,107.39675 L4.99725,226.86375 C-1.66575,233.52875 -1.66575,244.33175 4.99725,250.99575 L124.46425,370.46275 C127.66425,373.66375 132.00425,375.463832 136.53025,375.463832 C138.77325,375.47075 140.99625,375.02975 143.06625,374.16675 C149.44225,371.52275 153.59825,365.29975 153.59625,358.39675 L153.59625,307.19675 L273.06325,307.19675 C282.48925,307.19675 290.13025,299.55575 290.13025,290.12975 C290.13025,280.70375 282.48925,273.06275 273.06325,273.06275 L136.53025,273.06275 C127.10425,273.06275 119.46325,280.70375 119.46325,290.12975 L119.46325,317.19775 L41.19525,238.92975 L119.46325,160.66175 L119.46325,187.72975 C119.46325,197.15575 127.10425,204.79675 136.53025,204.79675 L324.26325,204.79675 L324.26325,255.99675 C324.26525,265.42275 331.90825,273.06175 341.33325,273.05975 C345.85725,273.05875 350.19625,271.26175 353.39625,268.06275 L472.86325,148.59575 C479.52525,141.93075 479.52525,131.12775 472.86325,124.46375 Z" id="Path"></path>
        </g>
    </g>
</svg>