<?xml version="1.0" encoding="UTF-8"?>
<svg viewBox="0 0 359 391" version="1.1" xmlns="http://www.w3.org/2000/svg" xmlns:xlink="http://www.w3.org/1999/xlink">
    <g id="Page-1" stroke="none" stroke-width="1" fill="none" fill-rule="evenodd">
        <g id="bookmark-(1)" fill="currentColor" fill-rule="nonzero">
            <path d="M309.36,27.04 L302.96,27.04 L302.96,8 C302.96,3.582 299.378,0 294.96,0 L179.12,0 C174.702,0 171.12,3.582 171.12,8 L171.12,27.04 L48.8,27.04 C24.8,27.04 0,39.84 0,75.84 L0,341.76 C0,377.76 25.2,390.56 48.8,390.56 L309.36,390.56 C333.36,390.56 358.16037,377.76 358.16037,341.76 L358.16037,75.92 C358.24,52.32 345.36,27.04 309.36,27.04 Z M187.12,16 L286.96,16 L286.96,156.4 L242.16,118.8 C239.18,116.285 234.82,116.285 231.84,118.8 L187.04,156.4 L187.12,16 Z M309.44,374.56 L48.8,374.56 C36.56,374.56 16,370.32 16,341.76 L16,75.92 C16,47.36 36.56,43.12 48.8,43.12 L171.12,43.12 L171.12,173.76 C171.113,178.178 174.689,181.766 179.107,181.773 C180.982,181.776 182.799,181.12 184.24,179.92 L237.04,135.68 L289.84,179.92 C293.235,182.748 298.279,182.288 301.107,178.893 C302.307,177.452 302.963,175.635 302.96,173.76 L302.96,43.04 L309.36,43.04 C337.92,43.04 342.16,63.6 342.16,75.84 L342.24,341.76 C342.24,370.32 321.68,374.56 309.44,374.56 Z" id="Shape"></path>
            <path d="M141.04,98.16 L45.52,98.16 C41.102,98.16 37.52,101.742 37.52,106.16 C37.52,110.578 41.102,114.16 45.52,114.16 L141.04,114.16 C145.458,114.16 149.04,110.578 149.04,106.16 C149.04,101.742 145.458,98.16 141.04,98.16 Z" id="Path"></path>
            <path d="M141.04,152.8 L45.52,152.8 C41.102,152.8 37.52,156.382 37.52,160.8 C37.52,165.218 41.102,168.8 45.52,168.8 L141.04,168.8 C145.458,168.8 149.04,165.218 149.04,160.8 C149.04,156.382 145.458,152.8 141.04,152.8 Z" id="Path"></path>
            <path d="M298.48,207.44 L45.52,207.44 C41.102,207.44 37.52,211.022 37.52,215.44 C37.52,219.858 41.102,223.44 45.52,223.44 L298.48,223.44 C302.898,223.44 306.48,219.858 306.48,215.44 C306.48,211.022 302.898,207.44 298.48,207.44 Z" id="Path"></path>
            <path d="M298.48,261.76 L45.52,261.76 C41.102,261.76 37.52,265.342 37.52,269.76 C37.52,274.178 41.102,277.76 45.52,277.76 L298.48,277.76 C302.898,277.76 306.48,274.178 306.48,269.76 C306.48,265.342 302.898,261.76 298.48,261.76 Z" id="Path"></path>
            <path d="M298.48,316.8 L45.52,316.8 C41.102,316.8 37.52,320.382 37.52,324.8 C37.52,329.218 41.102,332.8 45.52,332.8 L298.48,332.8 C302.898,332.8 306.48,329.218 306.48,324.8 C306.48,320.382 302.898,316.8 298.48,316.8 Z" id="Path"></path>
        </g>
    </g>
</svg>