<?xml version="1.0" encoding="UTF-8"?>
<svg viewBox="0 0 512 493" version="1.1" xmlns="http://www.w3.org/2000/svg" xmlns:xlink="http://www.w3.org/1999/xlink">
    <g id="Page-1" stroke="none" stroke-width="1" fill="none" fill-rule="evenodd">
        <g id="email-(1)" fill="currentColor" fill-rule="nonzero">
            <path d="M451.23,0 L60.77,0 C27.261,0 2.84217094e-14,27.261 2.84217094e-14,60.77 L2.84217094e-14,431.968 C2.84217094e-14,465.477 27.261,492.738 60.77,492.738 L451.23,492.738 C484.739,492.738 512,465.477 512,431.968 L512,60.77 C512,27.261 484.739,0 451.23,0 L451.23,0 Z M478.496,431.968 C478.496,447.002 466.265,459.234 451.23,459.234 L60.77,459.234 C45.735,459.234 33.504,447.002 33.504,431.968 L33.504,60.77 C33.504,45.736 45.735,33.504 60.77,33.504 L451.23,33.504 C466.265,33.504 478.496,45.736 478.496,60.77 L478.496,431.968 Z M380.105,122.903 C343.763,89.916 282.692,81.375 224.522,101.145 C157.951,123.769 111.058,176.882 99.085,243.219 C91.386,285.809 101.069,325.93 126.351,356.192 C151.134,385.856 187.82,402.194 229.65,402.194 C262.511,402.194 295.641,392.057 325.458,372.877 C333.24,367.872 335.49,357.506 330.485,349.725 C325.479,341.943 315.113,339.693 307.333,344.698 C282.932,360.394 256.069,368.69 229.65,368.69 C197.923,368.69 170.368,356.623 152.064,334.711 C133.26,312.203 126.155,281.827 132.057,249.176 C141.836,194.995 180.433,151.517 235.304,132.869 C282.121,116.96 330.123,122.784 357.587,147.713 C380.454,168.47 387.425,201.2 377.748,242.365 C366.581,289.836 348.886,302.275 342.059,300.85 C338.144,300.037 334.831,294.316 336.138,287.093 L355.943,177.491 C357.588,168.386 351.541,159.671 342.436,158.026 C333.337,156.383 324.617,162.427 322.971,171.533 L321.705,178.54 C307.702,165.087 288.82,157.76 267.699,157.76 C219.689,157.76 175.269,195.294 166.568,243.236 C162.192,267.577 167.819,290.594 182.415,308.048 C196.757,325.199 217.868,334.643 241.859,334.643 C265.648,334.643 288.548,325.419 306.665,310.289 C312.081,322.074 322.241,330.951 335.237,333.654 C360.805,338.966 393.953,319.792 410.363,250.036 C422.815,197.065 412.069,151.917 380.105,122.903 L380.105,122.903 Z M241.859,301.137 C227.964,301.137 215.982,295.958 208.119,286.553 C200.001,276.844 196.955,263.567 199.54,249.191 C205.239,217.791 236.452,191.262 267.699,191.262 C281.594,191.262 293.577,196.441 301.44,205.846 C309.558,215.553 312.603,228.832 310.018,243.207 C304.319,274.608 273.106,301.137 241.859,301.137 L241.859,301.137 Z" id="Shape"></path>
        </g>
    </g>
</svg>