<?xml version="1.0" encoding="UTF-8"?>
<svg viewBox="0 0 512 512" version="1.1" xmlns="http://www.w3.org/2000/svg" xmlns:xlink="http://www.w3.org/1999/xlink">
    <g id="Page-1" stroke="none" stroke-width="1" fill="none" fill-rule="evenodd">
        <g id="csv-(1)" fill="currentColor" fill-rule="nonzero">
            <path d="M467,242 L451,242 L451,135 C451,131.105 449.42,127.206 446.607,124.394 C446.607,124.394 446.607,124.394 446.607,124.393 L326.607,4.393 C323.73,1.518 319.812,0 316,0 L106,0 C81.187,0 61,20.187 61,45 L61,242 L45,242 C20.187,242 0,262.187 0,287 L0,467 C0,491.813 20.187,512 45,512 L467,512 C491.813,512 512,491.813 512,467 L512,287 C512,262.187 491.813,242 467,242 Z M331,51.213 L399.787,120 L346,120 C337.729,120 331,113.271 331,105 L331,51.213 Z M91,45 C91,36.729 97.729,30 106,30 L301,30 L301,105 C301,129.813 321.187,150 346,150 L421,150 L421,242 L91,242 L91,45 Z M482,467 C482,475.271 475.271,482 467,482 L45,482 C36.729,482 30,475.271 30,467 L30,287 C30,278.729 36.729,272 45,272 L467,272 C475.271,272 482,278.729 482,287 L482,467 Z" id="Shape"></path>
            <path d="M136,332 C144.271,332 151,338.729 151,347 C151,355.284 157.716,362 166,362 C174.284,362 181,355.284 181,347 C181,322.187 160.813,302 136,302 C111.187,302 91,322.187 91,347 L91,407 C91,431.813 111.187,452 136,452 C160.813,452 181,431.813 181,407 C181,398.716 174.284,392 166,392 C157.716,392 151,398.716 151,407 C151,415.271 144.271,422 136,422 C127.729,422 121,415.271 121,407 L121,347 C121,338.729 127.729,332 136,332 Z" id="Path"></path>
            <path d="M256,362 C247.729,362 241,355.271 241,347 C241,338.729 247.729,332 256,332 C260.007,332 263.773,333.56 266.606,336.393 C272.462,342.251 281.96,342.251 287.819,336.393 C293.677,330.535 293.677,321.038 287.819,315.18 C279.32,306.681 268.021,302 256,302 C231.187,302 211,322.187 211,347 C211,371.813 231.187,392 256,392 C264.271,392 271,398.729 271,407 C271,415.271 264.271,422 256,422 C251.993,422 248.227,420.44 245.394,417.607 C239.538,411.749 230.04,411.749 224.181,417.607 C218.323,423.465 218.323,432.962 224.181,438.82 C232.68,447.319 243.979,452 256,452 C280.813,452 301,431.813 301,407 C301,382.187 280.813,362 256,362 Z" id="Path"></path>
            <path d="M409.638,302.448 C401.611,300.442 393.457,305.324 391.449,313.362 L376,375.153 L360.552,313.362 C358.542,305.324 350.394,300.439 342.363,302.448 C334.326,304.457 329.439,312.601 331.449,320.638 L361.449,440.638 C363.117,447.315 369.117,452 376,452 C382.883,452 388.883,447.315 390.552,440.638 L420.552,320.638 C422.562,312.601 417.675,304.457 409.638,302.448 Z" id="Path"></path>
        </g>
    </g>
</svg>