<svg id="Layer_2" enable-background="new 0 0 32 32" viewBox="0 0 32 32" xmlns="http://www.w3.org/2000/svg">
    <g fill="currentColor">
        <path d="m27.28998 1.33997c-.58997-.58997-1.53998-.58997-2.12 0-.58997.58002-.58997 1.53003 0 2.12l.82001.82001-2.20996 2.21002c-2.20001-1.55-4.88001-2.47004-7.78003-2.47004s-5.58002.92004-7.78003 2.47003l-2.20996-2.21002.82001-.82001c.58997-.58997.58997-1.53998 0-2.12-.58002-.58996-1.53003-.58996-2.12.00001l-3.77002 3.77002c-.59003.58002-.59003 1.53003 0 2.12.28998.28998.67999.44 1.06.44s.77002-.15002 1.06-.44l.83002-.83002 2.07996 2.09003c-2.18 2.40001-3.50996 5.58001-3.50996 9.07 0 7.46997 6.07001 13.53998 13.53998 13.53998s13.53998-6.07001 13.53998-13.53998c0-3.48999-1.32996-6.66998-3.50995-9.07001l2.07996-2.09003.83001.83002c.28998.28998.67999.44 1.06.44s.77002-.15002 1.06-.44c.59003-.58997.59003-1.53998 0-2.12zm-6 17.72003h-3.78998v3.78998c0 .83002-.66998 1.5-1.5 1.5s-1.5-.66998-1.5-1.5v-3.78998h-3.78998c-.83002 0-1.5-.66998-1.5-1.5s.66998-1.5 1.5-1.5h3.78998v-3.79004c0-.82996.66998-1.5 1.5-1.5s1.5.67004 1.5 1.5v3.79004h3.78998c.83002 0 1.5.66998 1.5 1.5s-.66998 1.5-1.5 1.5z" />
    </g>
</svg>