<?xml version="1.0" encoding="UTF-8"?>
<svg viewBox="0 0 472 512" version="1.1" xmlns="http://www.w3.org/2000/svg" xmlns:xlink="http://www.w3.org/1999/xlink">
    <g id="Page-1" stroke="none" stroke-width="1" fill="none" fill-rule="evenodd">
        <g id="stopwatch-(1)" fill="currentColor" fill-rule="nonzero">
            <path d="M402.877,109.124 C401.201,107.449 399.499,105.811 397.783,104.193 L414.352,84.323 L441.505,106.966 L467.123,76.246 L382.098,5.341 L356.48,36.061 L383.632,58.704 L366.482,79.27 C333.601,57.363 295.814,44.167 256,40.847 L256,0 L216,0 L216,40.847 C160.506,45.474 108.949,69.297 69.123,109.123 C24.548,153.697 0,212.962 0,276 C0,339.038 24.548,398.303 69.123,442.877 C113.697,487.452 172.962,512 236,512 C299.038,512 358.303,487.452 402.877,442.877 C447.452,398.303 472,339.038 472,276 C472,212.962 447.452,153.697 402.877,109.124 Z M236,472 C127.925,472 40,384.075 40,276 C40,167.925 127.925,80 236,80 C344.075,80 432,167.925 432,276 C432,384.075 344.075,472 236,472 Z" id="Shape"></path>
            <path d="M317.887,143.019 L242.245,236.491 C240.209,236.17 238.124,236 236,236 C213.944,236 196,253.944 196,276 C196,298.056 213.944,316 236,316 C258.056,316 276,298.056 276,276 C276,270.948 275.049,266.116 273.332,261.662 L348.98,168.182 L317.887,143.019 Z" id="Path"></path>
        </g>
    </g>
</svg>