<?xml version="1.0" encoding="UTF-8"?>
<svg viewBox="0 0 512 512" version="1.1" xmlns="http://www.w3.org/2000/svg" xmlns:xlink="http://www.w3.org/1999/xlink">
    <g id="Page-1" stroke="none" stroke-width="1" fill="none" fill-rule="evenodd">
        <g id="help" fill="currentColor" fill-rule="nonzero">
            <path d="M248.158,343.22 C233.519,343.22 221.667,355.42 221.667,370.06 C221.667,384.351 233.17,396.9 248.158,396.9 C263.146,396.9 274.998,384.352 274.998,370.06 C274.998,355.42 262.799,343.22 248.158,343.22 Z" id="Path"></path>
            <path d="M252.69,140.002 C205.633,140.002 184.022,167.887 184.022,186.71 C184.022,200.305 195.524,206.579 204.936,206.579 C223.758,206.579 216.09,179.739 251.644,179.739 C269.073,179.739 283.016,187.408 283.016,203.442 C283.016,222.266 263.496,233.071 251.993,242.831 C241.885,251.545 228.639,265.837 228.639,295.814 C228.639,313.939 233.518,319.168 247.81,319.168 C264.89,319.168 268.375,311.5 268.375,304.877 C268.375,286.751 268.725,276.294 287.896,261.306 C297.307,253.986 326.936,230.283 326.936,197.517 C326.936,164.751 297.307,140.002 252.69,140.002 Z" id="Path"></path>
            <path d="M256,0 C114.516,0 0,114.497 0,256 L0,492 C0,503.046 8.954,512 20,512 L256,512 C397.483,512 512,397.503 512,256 C512,114.516 397.503,0 256,0 Z M256,472 L40,472 L40,256 C40,136.623 136.607,40 256,40 C375.377,40 472,136.607 472,256 C472,375.377 375.393,472 256,472 Z" id="Shape"></path>
        </g>
    </g>
</svg>